<svg id="Lager_1" data-name="Lager 1" xmlns="http://www.w3.org/2000/svg" xmlns:xlink="http://www.w3.org/1999/xlink"
  viewBox="0 0 2091.3339 527.6714">
  <defs>
    <style>
      .cls-1 {
        fill: none;
      }

      .cls-2 {
        clip-path: url(#clip-path);
      }

      .cls-3 {
        fill: #e96092;
      }

      .cls-4 {
        fill: #f4a300;
      }

      .cls-5 {
        fill: #e54f35;
      }

      .cls-6 {
        fill: #ffdb14;
      }

      .cls-7 {
        fill: #832081;
      }

      .cls-8 {
        fill: #63b6e6;
      }
    </style>
    <clipPath id="clip-path" transform="translate(-394.6649 -545.9439)">
      <path class="cls-1"
        d="M611.8316,552.4746,405.985,671.3172a22.64,22.64,0,0,0-11.32,19.6619v237.699a22.64,22.64,0,0,0,11.32,19.6619l205.847,118.8568a22.6384,22.6384,0,0,0,22.6393,0L840.332,948.34a22.6256,22.6256,0,0,0,11.32-19.6619V690.923a22.64,22.64,0,0,0-11.32-19.6619L634.4713,552.4184A22.6262,22.6262,0,0,0,611.8316,552.4746Z" />
    </clipPath>
  </defs>
  <title>FT_Logo_Color</title>
  <g id="Group_320" data-name="Group 320">
    <g class="cls-2">
      <g id="Group_319" data-name="Group 319">
        <g id="Group_318" data-name="Group 318">
          <g id="Group_317" data-name="Group 317">
            <path id="Path_766" data-name="Path 766" class="cls-3" d="M623.1511,545.9439V809.7514L851.6374,677.8335Z"
              transform="translate(-394.6649 -545.9439)" />
          </g>
          <path id="Path_767" data-name="Path 767" class="cls-4" d="M623.1512,809.7514V545.9439L394.6649,677.8618Z"
            transform="translate(-394.6649 -545.9439)" />
          <path id="Path_768" data-name="Path 768" class="cls-5" d="M394.6649,677.8614V941.6971L623.1512,809.7792Z"
            transform="translate(-394.6649 -545.9439)" />
          <path id="Path_769" data-name="Path 769" class="cls-6" d="M623.1512,809.78v263.8357L394.6649,941.6975Z"
            transform="translate(-394.6649 -545.9439)" />
          <path id="Path_770" data-name="Path 770" class="cls-7" d="M623.1512,809.7792,851.6376,677.8614V941.6971Z"
            transform="translate(-394.6649 -545.9439)" />
          <path id="Path_771" data-name="Path 771" class="cls-8" d="M623.1512,809.78v263.8357L851.6376,941.6975Z"
            transform="translate(-394.6649 -545.9439)" />
        </g>
      </g>
    </g>
  </g>
  <path id="Path_773" data-name="Path 773"
    d="M2311.204,695.4588h40.4474c.7865,0,1.5589.07,2.7106.1264v131.314c1.7695-1.6852,2.8088-2.5562,3.7076-3.5394q32.4282-34.1,64.7722-68.269a8.9455,8.9455,0,0,1,7.2889-3.0478c16.4318.1265,32.8495,0,49.2814,0h5l-76.0638,78.297,77.6508,106.8908h-50.2926a6.3345,6.3345,0,0,1-5.8985-2.9916q-24.6617-34.521-49.5061-68.9154c-.8426-1.1658-1.7415-2.2892-2.8088-3.7357-7.4715,7.8228-13.6824,14.1839-20.8028,21.8943a6.72,6.72,0,0,0-1.9911,5.31V936.95h-43.495Z"
    transform="translate(-394.6649 -545.9439)" />
  <path id="Path_775" data-name="Path 775"
    d="M1213.989,815.8744l-40.1385-9.0584a61.2026,61.2026,0,0,1,15.0133-34.0293,75.5984,75.5984,0,0,1,53.368-25.9258,101.7484,101.7484,0,0,1,50.56,7.0221,60.7981,60.7981,0,0,1,37.1893,51.1213,108.3073,108.3073,0,0,1,.7445,13.5668l.0982,90.473c0,9.2971.9407,18.5805,1.4045,28.0885h-40.8269c-.6322-7.2188-1.25-14.4377-1.924-22.0916-.6883.8006-1.25,1.4045-1.7838,2.05a63.5494,63.5494,0,0,1-44.2252,25.2795,75.2468,75.2468,0,0,1-44.2818-7.4854,53.7756,53.7756,0,0,1-12.12-87.2289,62.3852,62.3852,0,0,1,33.0041-15.21c16.8533-2.9354,52.3995-8.3846,53.3685-8.4969,13.2017-1.5168,15.6172-10.14,12.9068-20.631-3.3894-12.1391-13.07-20.9056-27.4377-21.0294a90.0064,90.0064,0,0,0-14.8215.89,34.675,34.675,0,0,0-29.4931,29.493A18.8142,18.8142,0,0,1,1213.989,815.8744Zm70.1793,36.6275c-13.061,1.9381-26.1084,3.9743-39.1836,5.8563-7.7953,1.3668-13.893,2.7867-20.0973,6.2074a21.4171,21.4171,0,0,0-10.6035,21.3334,22.47,22.47,0,0,0,12.3732,19.2826c16.1107,7.4109,38.699,2.6887,51.0789-11.9939,6.8143-8.5672,11.6807-26.7674,9.767-41.0457C1287.503,852.142,1285.197,852.4337,1284.1683,852.5019Z"
    transform="translate(-394.6649 -545.9439)" />
  <path id="Path_775-2" data-name="Path 775"
    d="M1980.2188,815.8744,1940.08,806.816a61.2026,61.2026,0,0,1,15.0133-34.0293,75.5984,75.5984,0,0,1,53.368-25.9258,101.7484,101.7484,0,0,1,50.5595,7.0221,60.7981,60.7981,0,0,1,37.1893,51.1213,108.3073,108.3073,0,0,1,.7445,13.5668l.0982,90.473c0,9.2971.9407,18.5805,1.4045,28.0885h-40.8269c-.6322-7.2188-1.25-14.4377-1.924-22.0916-.6883.8006-1.25,1.4045-1.7838,2.05a63.5492,63.5492,0,0,1-44.2252,25.2795,75.2468,75.2468,0,0,1-44.2818-7.4854,53.7756,53.7756,0,0,1-12.12-87.2289,62.3852,62.3852,0,0,1,33.0042-15.21c16.8532-2.9354,52.3994-8.3846,53.3684-8.4969,13.2017-1.5168,15.6172-10.14,12.9068-20.631-3.3894-12.1391-13.07-20.9056-27.4377-21.0294a90.0064,90.0064,0,0,0-14.8215.89,34.675,34.675,0,0,0-29.4931,29.493A18.8142,18.8142,0,0,1,1980.2188,815.8744Zm70.1793,36.6275c-13.061,1.9381-26.1084,3.9743-39.1836,5.8563-7.7953,1.3668-13.8929,2.7867-20.0973,6.2074a21.4171,21.4171,0,0,0-10.6035,21.3334,22.47,22.47,0,0,0,12.3732,19.2826c16.1107,7.4109,38.699,2.6887,51.0789-11.9939,6.8143-8.5672,11.6807-26.7674,9.767-41.0457C2053.7328,852.142,2051.4268,852.4337,2050.3981,852.5019Z"
    transform="translate(-394.6649 -545.9439)" />
  <path id="Path_776" data-name="Path 776"
    d="M2294.41,807.209l-39.324,14.3533c-1.0533-2.809-1.9381-5.4492-3.0195-7.9912a43.9022,43.9022,0,0,0-43.5372-26.53,51.1633,51.1633,0,0,0-49.2533,48.7053c-1.46,17.3906,1.9865,35.6529,13.0753,49.6607a47.3437,47.3437,0,0,0,40.4755,17.0916,45.77,45.77,0,0,0,43.6636-32.3017,12.3306,12.3306,0,0,1,.9129-1.5729l38.2425,13.8475a27.59,27.59,0,0,1-.7864,3.09c-10.4881,31.441-38.03,52.428-71.6258,56.6266-27.2635,3.4089-53.0857-3.271-73.4375-20.4205-24.7635-20.5075-36.6107-51.66-34.9842-83.9145a95.291,95.291,0,0,1,22.0916-58.0171c18.1179-22.0478,44.8564-33.6538,73.9993-33.3692,16.5029-.1016,31.8058,4.39,47.0342,12.4293A78.4789,78.4789,0,0,1,2294.41,807.209Z"
    transform="translate(-394.6649 -545.9439)" />
  <path id="Path_777" data-name="Path 777"
    d="M1493.4918,798.1223l-36.81,10.5191c-.6181-1.8537-1.2078-3.4549-1.6714-5.084a34.0993,34.0993,0,0,0-49.0846-18.4263,19.1987,19.1987,0,0,0-10.3928,19.2826,17.9628,17.9628,0,0,0,14.0442,15.7857c10.42,2.5316,19.7338,4.3918,30.0689,6.6149a100.5537,100.5537,0,0,1,28.524,10.0836,54.281,54.281,0,0,1,5.8143,90.7122c-11.1516,8.8968-24.3163,13.4136-39.0291,14.943-20.8293,2.1244-39.55-1.7148-56.5984-11.783a61.1352,61.1352,0,0,1-29.3946-43.65l38.3688-10.6738a36.5156,36.5156,0,0,0,8.1877,19.1566c14.1293,17.2233,42.92,15.1166,53.6632,2.4438a17.6953,17.6953,0,0,0-5.5476-27.0774,128.0132,128.0132,0,0,0-23.5381-7.2892c-9.08-2.1941-18.0328-3.8479-26.7543-6.6711a52.3713,52.3713,0,0,1-38.3269-40.6443,50.5594,50.5594,0,0,1,8.6093-40.7282c12.4682-19.7975,35.3879-29.3648,59.59-29.2822,15.9907-.0826,30.4066,3.5822,43.467,11.5725a58.6069,58.6069,0,0,1,26.4453,37.1191A26.5814,26.5814,0,0,1,1493.4918,798.1223Z"
    transform="translate(-394.6649 -545.9439)" />
  <path id="Path_778" data-name="Path 778"
    d="M1160.6751,722.157c-7.0221,0-13.328-.1685-19.6619,0-14.5318,0-23.3756,10.6986-23.4961,23.65-.137,2.8142-.0981,6.07-.0981,6.07h42.5961v38.5094h-42.7928v146.732h-44.4078V790.555h-32.1894V751.9474h32.1054c0-10.5525.8357-19.4805,4.2131-29.4956a57.5812,57.5812,0,0,1,47.9188-39.1553c11.3165-1.13,21.9609-1.3689,32.5267,1.6994,1.3862.4176,3.1879,1.0213,3.1879,1.0213Z"
    transform="translate(-394.6649 -545.9439)" />
  <path id="Path_779" data-name="Path 779"
    d="M1715.7984,695.5291l39.83,13.3842V752.001h38.4111v39.1836h-38.2285V876.7c0,1.7273.1684,5.1963.1684,5.1963.5351,9.6415,7.3228,17.0194,17.0638,17.9347,8.2613.7374,13.5144.2652,21.4877-.73v28.4537c0,8.2861,0,8.581-8.1035,10.21a79.6038,79.6038,0,0,1-39.6189-1.1234,46.8649,46.8649,0,0,1-34.2649-41.2057,120.1654,120.1654,0,0,1-.5928-12.359c-.0656-28.95,0-91.8072,0-91.8072l-34.1417-.1314-.1345-39.1367s8.4348.084,12.5636,0c16.9459,0,25.6567-8.25,25.6567-25.9554C1715.8944,725.32,1715.7984,695.5291,1715.7984,695.5291Z"
    transform="translate(-394.6649 -545.9439)" />
  <path id="Path_779-2" data-name="Path 779"
    d="M1543.9317,695.5291l39.8295,13.3842V752.001h38.4111v39.1836h-38.2285V876.7c0,1.7273.1684,5.1963.1684,5.1963.5351,9.6415,7.3228,17.0194,17.0637,17.9347,8.2613.7374,13.5145.2652,21.4878-.73v28.4537c0,8.2861,0,8.581-8.1035,10.21a79.6037,79.6037,0,0,1-39.6189-1.1234,46.8649,46.8649,0,0,1-34.2649-41.2057,120.14,120.14,0,0,1-.5929-12.359c-.0656-28.95,0-91.8072,0-91.8072l-34.1416-.1314-.1346-39.1367s8.4348.084,12.5637,0c16.9459,0,25.6567-8.25,25.6567-25.9554C1544.0277,725.32,1543.9317,695.5291,1543.9317,695.5291Z"
    transform="translate(-394.6649 -545.9439)" />
  <path id="Path_781" data-name="Path 781"
    d="M1862.1867,937.09h-43.8883V752.352h42.4839v27.4144a57.0208,57.0208,0,0,1,28.0885-24.9988,67.8025,67.8025,0,0,1,37.5263-3.9182v44.6889c-2.2612-.1406-4.34-.4213-6.4323-.3793a161.3782,161.3782,0,0,0-21.53.8148,39.6989,39.6989,0,0,0-34.4584,33.9307,144.4779,144.4779,0,0,0-1.5933,19.03c-.2106,27.7376-.0842,55.4888-.0842,83.2263Z"
    transform="translate(-394.6649 -545.9439)" />
</svg>