<svg width="851" height="275" viewBox="0 0 851 275" fill="none" xmlns="http://www.w3.org/2000/svg">
<path d="M826.4 176.2L798.1 160.1L804.6 128.3L836.9 124.6L850.4 154.2L826.4 176.2Z" fill="white"/>
<path d="M566.6 71.3H469V35H587.3V0.699997H466C448.7 0.699997 434.7 14.7 434.7 32V75.7C434.7 92.2 448.1 105.6 464.6 105.6H561.2V141.9H436.4V176.2H565.2C582.5 176.2 596.5 162.2 596.5 144.9V101.2C596.5 84.7 583.1 71.3 566.6 71.3Z" fill="white"/>
<path d="M785.1 0.699997H611.3V35H680.9V176.2H715.5V35H785.1V0.699997Z" fill="white"/>
<path d="M207.1 0.699997H172.4V176.1H207.1V0.699997Z" fill="white"/>
<path d="M138.3 35V0.699997H0V176.2H34.7V105.6H138.3V71.3H34.7V35H138.3Z" fill="white"/>
<path d="M335 105.6H381C397.5 105.6 410.9 92.2 410.9 75.7V35.9C410.9 16.5 395.2 0.699997 375.7 0.699997H241.1V176.1H275.8V105.5H281.7L363.2 176.1H416.4L334.9 105.5L335 105.6ZM275.9 71.3V35H377.5V71.3H275.9Z" fill="white"/>
<path d="M189.7 236.4H154.6V223.4H197.1V211.1H153.5C147.3 211.1 142.3 216.1 142.3 222.3V238C142.3 243.9 147.1 248.8 153.1 248.8H187.8V261.8H143V274.1H189.3C195.5 274.1 200.5 269.1 200.5 262.9V247.2C200.5 241.3 195.7 236.4 189.7 236.4Z" fill="white"/>
<path d="M270.5 211H208.1V223.4H233.1V274.1H245.5V223.4H270.5V211Z" fill="white"/>
<path d="M313.8 211H301.3V274H313.8V211Z" fill="white"/>
<path d="M683.1 248.7H699.6C705.5 248.7 710.4 243.9 710.4 237.9V223.6C710.4 216.6 704.7 211 697.8 211H649.5V274H662V248.6H664.1L693.4 274H712.5L683.2 248.6L683.1 248.7ZM661.8 223.4H698.3V236.5H661.8V223.4Z" fill="white"/>
<path d="M479.9 236.4H444.8V223.4H487.3V211.1H443.7C437.5 211.1 432.5 216.1 432.5 222.3V238C432.5 243.9 437.3 248.8 443.3 248.8H478V261.8H433.2V274.1H479.5C485.7 274.1 490.7 269.1 490.7 262.9V247.2C490.7 241.3 485.9 236.4 479.9 236.4Z" fill="white"/>
<path d="M839.5 236.4H804.4V223.4H846.9V211.1H803.3C797.1 211.1 792.1 216.1 792.1 222.3V238C792.1 243.9 796.9 248.8 802.9 248.8H837.6V261.8H792.8V274.1H839.1C845.3 274.1 850.3 269.1 850.3 262.9V247.2C850.3 241.3 845.5 236.4 839.5 236.4Z" fill="white"/>
<path d="M625.1 211H589.4C583.2 211 578.2 216 578.2 222.2V262.8C578.2 269 583.2 274 589.4 274H625.1C631.3 274 636.3 269 636.3 262.8V222.2C636.3 216 631.3 211 625.1 211ZM624 261.8H590.5V223.4H624V261.8Z" fill="white"/>
<path d="M781.6 211H719.2V223.4H744.2V274.1H756.6V223.4H781.6V211Z" fill="white"/>
<path d="M552 211H503.7V274H516.2V248.6H554C559.9 248.6 564.8 243.8 564.8 237.8V223.5C564.8 216.5 559.1 210.9 552.2 210.9M552.6 236.4H516.1V223.3H552.6V236.4Z" fill="white"/>
<path d="M61 236.6V223.6C61 216.6 55.3 211 48.4 211H0.0999756V274H48.4C55.4 274 61 268.3 61 261.4V248.7C61 246.5 59.1 243.2 56.6 242.6C59.1 242.2 61 238.8 61 236.6ZM12.5 223.4H49V236.5H48.7H12.5V223.5V223.4ZM49 261.8H12.5V248.8H48.9V261.9L49 261.8Z" fill="white"/>
<path d="M86.3 236.4H86V223.3H129.3V211H86.6C79.6 211 74 216.7 74 223.6V261.4C74 268.4 79.7 274 86.6 274H129.3V261.7H86V248.6H129.3V236.3H86.3V236.4Z" fill="white"/>
<path d="M376.6 254.4L340.9 211.1V211H328.4V274.1H340.9V230.7L376.6 274V274.1H389.1V211H376.6V254.4Z" fill="white"/>
</svg>
