<svg width="601" height="129" viewBox="0 0 601 129" fill="none" xmlns="http://www.w3.org/2000/svg">
<path d="M164.3 29V74.9H154.7L129.3 45.5V74.9H117.9V29H128.4L152.9 57V29H164.3Z" fill="#4C4B4D"/>
<path d="M214.6 60.9V70.9C208.9 73.9 202.8 75.5 196.6 75.5C188.5 75.5 182 73.2 177.1 68.8C172.3 64.3 169.9 58.8 169.9 52.2C169.9 45.6 172.4 40 177.5 35.4C182.6 30.8 189.3 28.5 197.5 28.5C204 28.5 209.6 29.8 214.1 32.5V42.7C208.5 39.6 203.3 38 198.3 38C193.4 38 189.4 39.3 186.3 41.9C183.2 44.5 181.7 47.9 181.7 51.9C181.7 56 183.2 59.3 186.3 62C189.4 64.7 193.3 66 198 66C200.4 66 202.6 65.7 204.8 65.1C207 64.4 210.3 63 214.6 60.9Z" fill="#4C4B4D"/>
<path d="M245.5 65.9C249.8 65.9 253.3 64.6 256 62C258.6 59.4 260 56.1 260 51.9C260 47.7 258.7 44.3 256 41.8C253.3 39.2 249.9 37.9 245.5 37.9C241.1 37.9 237.6 39.2 235 41.8C232.3 44.4 231 47.7 231 51.9C231 56.1 232.3 59.5 235 62C237.6 64.6 241.1 65.9 245.5 65.9ZM245.5 28.4C253.3 28.4 259.6 30.8 264.5 35.5C269.3 40.2 271.8 45.7 271.8 52C271.8 58.4 269.3 63.9 264.4 68.5C259.5 73.2 253.2 75.5 245.5 75.5C237.7 75.5 231.4 73.2 226.5 68.5C221.6 63.9 219.2 58.3 219.2 51.9C219.2 45.6 221.6 40.1 226.5 35.4C231.3 30.7 237.6 28.4 245.5 28.4Z" fill="#4C4B4D"/>
<path d="M303.4 46L318.1 29H328V74.9H316.6V46.2L304.2 60.6H302.5L290.1 46.2V74.9H278.7V29H288.6L303.4 46Z" fill="#4C4B4D"/>
<path d="M370.8 66.5V74.9H337V29H370.8V37.4H348.4V47H370.8V55.4H348.4V66.5H370.8Z" fill="#4C4B4D"/>
<path d="M413.5 60L417.2 34.1C416.3 34 415.4 34 414.6 34C407.9 34 402.9 36.1 399.4 40.4C395.9 44.7 394.2 49.4 394.2 54.6C394.2 58.2 395 61.2 396.7 63.5C398.4 65.8 400.5 66.9 403.1 66.9C405.2 66.9 407.4 65.9 409.8 63.8C412.1 61.8 413.4 60.5 413.5 60ZM426.4 28.1L420.1 73H411.6L412.4 67.8L412.2 67.6C408.3 71.8 404.2 73.9 400.1 73.9C396 73.9 392.5 72.2 389.6 68.7C386.7 65.2 385.3 61 385.3 56.1C385.3 47.6 388 40.5 393.3 35C398.6 29.5 406.1 26.7 415.7 26.7C419.7 26.7 423.3 27.2 426.4 28.1Z" fill="#4C4B4D"/>
<path d="M460.8 63L459.8 71.2C455.9 73.4 451.7 74.4 447.3 74.4C441.3 74.4 436.5 72.5 432.9 68.8C429.3 65 427.5 60 427.5 53.7C427.5 46.1 430.2 39.7 435.7 34.5C441.2 29.3 448.1 26.7 456.6 26.7C458.7 26.7 461.3 27 464.3 27.5L463.2 35C461.1 34.5 458.9 34.3 456.7 34.3C450.8 34.3 445.9 36.2 442 40C438.1 43.8 436.2 48.2 436.2 53.2C436.2 57.4 437.3 60.8 439.5 63.2C441.7 65.6 444.7 66.8 448.5 66.8C452.6 66.8 456.7 65.6 460.8 63Z" fill="#4C4B4D"/>
<path d="M496.9 63L495.9 71.2C492 73.4 487.8 74.4 483.4 74.4C477.4 74.4 472.6 72.5 469 68.8C465.4 65 463.6 60 463.6 53.7C463.6 46.1 466.3 39.7 471.8 34.5C477.3 29.3 484.2 26.7 492.7 26.7C494.8 26.7 497.4 27 500.4 27.5L499.3 35C497.2 34.5 495 34.3 492.8 34.3C486.9 34.3 482 36.2 478.1 40C474.2 43.8 472.3 48.2 472.3 53.2C472.3 57.4 473.4 60.8 475.6 63.2C477.8 65.6 480.8 66.8 484.6 66.8C488.7 66.8 492.8 65.6 496.9 63Z" fill="#4C4B4D"/>
<path d="M510.1 43.8H528.9C528.9 40.7 528.2 38.2 526.8 36.4C525.4 34.6 523.4 33.7 520.8 33.7C515.9 33.7 512.3 37.1 510.1 43.8ZM534.9 61.3L533.7 69.4C529.1 72.8 524.1 74.4 518.7 74.4C513 74.4 508.5 72.4 505.1 68.5C501.7 64.5 500 59.3 500 52.7C500 45.4 502.1 39.2 506.2 34.2C510.3 29.2 515.4 26.7 521.3 26.7C525.9 26.7 529.6 28.4 532.7 31.9C535.7 35.4 537.2 39.9 537.2 45.4C537.2 46.8 537.1 48.2 536.9 49.6H508.9C508.6 51.1 508.5 52.5 508.5 53.9C508.5 58 509.6 61.3 511.9 63.7C514.2 66.1 517 67.3 520.4 67.3C524.5 67.4 529.4 65.4 534.9 61.3Z" fill="#4C4B4D"/>
<path d="M568.6 31.4V40.3C563.4 36.4 558.9 34.4 555.1 34.4C553.4 34.4 551.9 34.9 550.8 35.8C549.6 36.7 549 37.8 549 39.1C549 40 549.4 40.8 550.1 41.8C550.8 42.8 553.2 44.5 557 47.1C560.9 49.7 563.5 52.1 564.9 54.3C566.3 56.5 566.9 58.7 566.9 61C566.9 64.9 565.6 68.2 563 70.7C560.4 73.2 557 74.5 553 74.5C548 74.5 542.8 72.5 537.4 68.6L538.9 60.4C544.5 64.9 549.1 67.1 552.7 67.1C554.4 67.1 555.8 66.6 556.9 65.7C558 64.8 558.5 63.6 558.5 62.1C558.5 61 558.1 59.9 557.3 58.8C556.5 57.7 554.2 55.8 550.3 53.1C546.5 50.4 543.9 48.1 542.7 46C541.5 43.9 540.8 41.8 540.8 39.7C540.8 35.8 542.1 32.7 544.6 30.4C547.2 28 550.6 26.9 554.9 26.9C559.5 26.7 564 28.3 568.6 31.4Z" fill="#4C4B4D"/>
<path d="M600.4 31.4V40.3C595.2 36.4 590.7 34.4 586.9 34.4C585.2 34.4 583.7 34.9 582.6 35.8C581.4 36.7 580.8 37.8 580.8 39.1C580.8 40 581.2 40.8 581.9 41.8C582.6 42.8 584.9 44.5 588.8 47.1C592.7 49.7 595.3 52.1 596.7 54.3C598.1 56.5 598.7 58.7 598.7 61C598.7 64.9 597.4 68.2 594.8 70.7C592.2 73.2 588.8 74.5 584.8 74.5C579.8 74.5 574.6 72.5 569.2 68.6L570.7 60.4C576.3 64.9 580.9 67.1 584.5 67.1C586.2 67.1 587.6 66.6 588.7 65.7C589.8 64.8 590.3 63.6 590.3 62.1C590.3 61 589.9 59.9 589.1 58.8C588.3 57.7 586 55.8 582.1 53.1C578.3 50.4 575.7 48.1 574.5 46C573.3 43.9 572.6 41.8 572.6 39.7C572.6 35.8 573.9 32.7 576.5 30.4C579.1 28 582.5 26.9 586.8 26.9C591.3 26.7 595.8 28.3 600.4 31.4Z" fill="#4C4B4D"/>
<path d="M98.5 40.6V74.8H109.9V29.3C106.4 32.7 102.3 36.8 98.5 40.6Z" fill="#4C4B4D"/>
<path d="M23.7001 54.7C19.9001 51.6 16.4001 48 13.2001 44.2C13.2001 44.2 18.9001 44.3 29.2001 42.1C39.5001 40 54.2001 34.9 72.1001 21.9C90.0001 8.89999 106.9 5.10001 106.9 5.10001C104.5 6.20001 101.9 7.70001 99.3001 9.60001C83.5001 21 68.8001 37.7 48.9001 48.5C43.5001 51.4 38.1001 53.5 33.4001 55.1C31.0001 56 26.6001 56.9 23.7001 54.7Z" fill="#278ACB"/>
<path d="M68.7 19.3C59.5 21.8 49.6 24.5 37.6 26C20 28.3 7.10004 23.9 0.600037 20.9L0.400024 20.8C2.30002 25.5 4.50003 30 7.10003 34.2C8.40003 36.1 10.6 37.3 13.1 37.4C15.9 37.4 19.8 37.3 25.1 36.5C49 33 68.8 19.1 68.8 19.1" fill="#278ACB"/>
<path d="M108.1 7.60003C100.8 12.8 93.0001 19.7 85.4001 26.3C76.3001 34.2 66.9001 42.4 58.2001 48.1C42.4001 58.6 31.7001 61.7 31.7001 62.2C31.7001 62.3 44.0001 69 49.9001 70.9C53.9001 72.1 58.7001 70.6 61.3001 68.3C71.3001 59.8 89.9001 40 105 23.7C123.3 4.00002 137.7 1.90001 137.7 1.90001C137.7 1.90001 124.2 -3.89997 108.1 7.60003Z" fill="#278ACB"/>
<path d="M222.8 111.8L220.6 105.3C220.1 103.8 219.8 102.5 219.4 101.2H219.3C219 102.5 218.6 103.9 218.2 105.3L216 111.8H222.8ZM215.3 114.1L213 121.2H210L217.7 98.6H221.2L228.9 121.2H225.8L223.4 114.1H215.3Z" fill="#4C4B4D"/>
<path d="M242.2 109.8C242.8 110 243.6 110 244.6 110C248.1 110 250.3 108.3 250.3 105.2C250.3 102.2 248.2 100.8 245 100.8C243.7 100.8 242.8 100.9 242.3 101V109.8H242.2ZM239.3 98.9C240.7 98.7 242.5 98.5 244.9 98.5C247.8 98.5 249.9 99.2 251.2 100.4C252.4 101.5 253.2 103.1 253.2 105.1C253.2 107.1 252.6 108.7 251.5 109.9C250 111.5 247.4 112.4 244.6 112.4C243.7 112.4 242.9 112.4 242.3 112.2V121.2H239.4V98.9H239.3Z" fill="#4C4B4D"/>
<path d="M264.7 112.9C261.5 112.8 257.8 113.4 257.8 116.6C257.8 118.5 259.1 119.4 260.6 119.4C262.7 119.4 264.1 118.1 264.5 116.7L264.7 115.8V112.9ZM265.1 121.2L264.9 119.2H264.8C263.9 120.5 262.2 121.6 259.8 121.6C256.5 121.6 254.8 119.3 254.8 116.9C254.8 113 258.3 110.8 264.5 110.9V110.6C264.5 109.3 264.1 106.8 260.8 106.8C259.3 106.8 257.7 107.3 256.6 108L255.9 106.1C257.2 105.2 259.2 104.7 261.2 104.7C266.2 104.7 267.4 108.1 267.4 111.3V117.4C267.4 118.8 267.5 120.2 267.7 121.3H265.1V121.2Z" fill="#4C4B4D"/>
<path d="M273.1 105L276.6 114.6C277 115.7 277.4 116.9 277.6 117.9H277.7C278 116.9 278.3 115.7 278.7 114.5L281.9 105H285L280.6 116.6C278.5 122.2 277 125 275 126.7C273.6 128 272.1 128.5 271.4 128.6L270.7 126.1C271.4 125.9 272.4 125.4 273.3 124.7C274.1 124.1 275.1 122.9 275.8 121.4L276 120.7C276 120.5 275.9 120.3 275.8 119.9L269.8 105H273.1Z" fill="#4C4B4D"/>
<path d="M287.2 118.2C288.1 118.8 289.6 119.4 291.1 119.4C293.2 119.4 294.3 118.3 294.3 117C294.3 115.6 293.5 114.8 291.3 114C288.4 113 287 111.4 287 109.4C287 106.8 289.1 104.6 292.6 104.6C294.2 104.6 295.7 105.1 296.6 105.6L295.9 107.7C295.3 107.3 294.1 106.8 292.6 106.8C290.9 106.8 289.9 107.8 289.9 109C289.9 110.3 290.9 110.9 293 111.8C295.8 112.9 297.3 114.3 297.3 116.7C297.3 119.5 295.1 121.6 291.2 121.6C289.4 121.6 287.8 121.2 286.6 120.5L287.2 118.2Z" fill="#4C4B4D"/>
<path d="M309.4 112.9C306.2 112.8 302.5 113.4 302.5 116.6C302.5 118.5 303.8 119.4 305.3 119.4C307.4 119.4 308.7 118.1 309.2 116.7L309.4 115.8V112.9ZM309.9 121.2L309.7 119.2H309.6C308.7 120.5 307 121.6 304.6 121.6C301.3 121.6 299.6 119.3 299.6 116.9C299.6 113 303.1 110.8 309.4 110.9V110.6C309.4 109.3 309 106.8 305.7 106.8C304.2 106.8 302.6 107.3 301.5 108L300.8 106.1C302.1 105.2 304.1 104.7 306.1 104.7C311.1 104.7 312.3 108.1 312.3 111.3V117.4C312.3 118.8 312.4 120.2 312.6 121.3H309.9V121.2Z" fill="#4C4B4D"/>
<path d="M317.3 121.2V107.2H315V105H317.3V104.2C317.3 101.9 317.8 99.8 319.2 98.5C320.3 97.4 321.8 97 323.1 97C324.1 97 325 97.2 325.6 97.5L325.2 99.8C324.8 99.6 324.2 99.4 323.3 99.4C320.8 99.4 320.2 101.6 320.2 104.1V105H324.1V107.2H320.2V121.2H317.3Z" fill="#4C4B4D"/>
<path d="M336.7 111.5C336.7 109.6 335.9 106.7 332.6 106.7C329.6 106.7 328.3 109.4 328.1 111.5H336.7ZM328 113.6C328.1 117.6 330.6 119.2 333.6 119.2C335.7 119.2 337 118.8 338.1 118.4L338.6 120.5C337.6 121 335.8 121.5 333.2 121.5C328.2 121.5 325.2 118.2 325.2 113.3C325.2 108.4 328.1 104.6 332.8 104.6C338.1 104.6 339.5 109.3 339.5 112.2C339.5 112.8 339.4 113.3 339.4 113.6H328Z" fill="#4C4B4D"/>
<path d="M366.2 120.5C365.1 121 363 121.6 360.2 121.6C353.8 121.6 349 117.6 349 110.2C349 103.1 353.8 98.3 360.8 98.3C363.6 98.3 365.4 98.9 366.2 99.3L365.5 101.7C364.4 101.2 362.8 100.8 360.9 100.8C355.6 100.8 352.1 104.2 352.1 110.1C352.1 115.6 355.3 119.2 360.8 119.2C362.6 119.2 364.4 118.8 365.6 118.3L366.2 120.5Z" fill="#4C4B4D"/>
<path d="M371.2 113.1C371.2 116.6 373.2 119.3 376.1 119.3C378.9 119.3 381 116.7 381 113C381 110.2 379.6 106.8 376.1 106.8C372.7 106.8 371.2 110 371.2 113.1ZM384 113C384 119 379.8 121.6 375.9 121.6C371.5 121.6 368.1 118.4 368.1 113.3C368.1 107.9 371.7 104.7 376.1 104.7C380.9 104.6 384 108 384 113Z" fill="#4C4B4D"/>
<path d="M387.7 109.4C387.7 107.7 387.7 106.4 387.6 105H390.2L390.3 107.6H390.4C391.3 106.1 392.8 104.6 395.5 104.6C397.7 104.6 399.4 105.9 400.1 107.8H400.2C400.7 106.9 401.3 106.2 402 105.7C403 105 404 104.6 405.6 104.6C407.7 104.6 410.9 106 410.9 111.6V121.1H408V112C408 108.9 406.9 107 404.5 107C402.8 107 401.5 108.2 401 109.7C400.9 110.1 400.8 110.6 400.8 111.2V121.2H397.9V111.5C397.9 108.9 396.8 107 394.5 107C392.7 107 391.3 108.5 390.8 109.9C390.6 110.3 390.6 110.8 390.6 111.3V121.1H387.7V109.4Z" fill="#4C4B4D"/>
<path d="M418.6 114.6C418.6 115 418.7 115.4 418.7 115.8C419.2 117.8 421 119.3 423.1 119.3C426.2 119.3 428 116.8 428 113C428 109.8 426.3 107 423.2 107C421.2 107 419.3 108.4 418.7 110.7C418.6 111.1 418.5 111.5 418.5 111.9V114.6H418.6ZM415.7 110.3C415.7 108.2 415.6 106.5 415.6 105H418.2L418.3 107.8H418.4C419.6 105.8 421.5 104.6 424.2 104.6C428.1 104.6 431.1 107.9 431.1 112.8C431.1 118.6 427.5 121.5 423.7 121.5C421.6 121.5 419.7 120.6 418.7 119H418.6V127.8H415.7V110.3Z" fill="#4C4B4D"/>
<path d="M443.3 112.9C440.1 112.8 436.4 113.4 436.4 116.6C436.4 118.5 437.7 119.4 439.2 119.4C441.3 119.4 442.6 118.1 443.1 116.7L443.3 115.8V112.9ZM443.7 121.2L443.5 119.2H443.4C442.5 120.5 440.8 121.6 438.4 121.6C435.1 121.6 433.4 119.3 433.4 116.9C433.4 113 436.9 110.8 443.2 110.9V110.6C443.2 109.3 442.8 106.8 439.5 106.8C438 106.8 436.4 107.3 435.3 108L434.6 106.1C435.9 105.2 437.9 104.7 439.9 104.7C444.9 104.7 446.1 108.1 446.1 111.3V117.4C446.1 118.8 446.2 120.2 446.4 121.3H443.7V121.2Z" fill="#4C4B4D"/>
<path d="M450.9 109.4C450.9 107.7 450.9 106.4 450.8 105H453.4L453.6 107.7H453.7C454.5 106.2 456.4 104.7 459.1 104.7C461.3 104.7 464.8 106 464.8 111.6V121.3H461.8V112C461.8 109.4 460.8 107.2 458.1 107.2C456.2 107.2 454.6 108.6 454.1 110.2C454 110.6 453.9 111.1 453.9 111.6V121.3H451V109.4H450.9Z" fill="#4C4B4D"/>
<path d="M470.1 105L473.6 114.6C474 115.7 474.4 116.9 474.6 117.9H474.7C475 116.9 475.3 115.7 475.7 114.5L478.9 105H482L477.6 116.6C475.5 122.2 474.1 125 472 126.7C470.6 128 469.1 128.5 468.4 128.6L467.7 126.1C468.4 125.9 469.4 125.4 470.3 124.7C471.1 124.1 472.1 122.9 472.8 121.4L473 120.7C473 120.5 472.9 120.3 472.8 119.9L466.8 105H470.1Z" fill="#4C4B4D"/>
</svg>
