<svg xmlns="http://www.w3.org/2000/svg" viewBox="0 0 515.88 87.39"><defs><style>.a{fill:#020202;fill-rule:evenodd;}</style></defs><title>Resurs 1</title><path class="a" d="M73.3,45.31,99.46,0h21a2.14,2.14,0,0,1,1.9,1.1,2.14,2.14,0,0,1,0,2.19L74.06,87a.88.88,0,0,1-1.52,0L52.86,52.87,33.5,86.4a.88.88,0,0,1-1.52,0L20.33,66.24,58.58,0h24.8L65.26,31.39l8,13.92Zm-61,7L.12,31.23a.86.86,0,0,1,0-.88L17.38.46A.86.86,0,0,1,18.14,0h24.3L12.27,52.27Z"/><path d="M140.72,21.79h10.54l7,28.15h.12l9.18-28.15h9l9.11,28.89h.12l7.38-28.89H203l-12.83,43.9h-8.62l-9.67-30.38h-.12l-9.67,30.38h-8.31Z"/><path d="M207.68,21.79h29.82v8.93H217.36V38.9h19v8.93h-19v8.93h21.27v8.93H207.68Z"/><path d="M246.37,21.79h16.37a41.42,41.42,0,0,1,5.74.4,15.7,15.7,0,0,1,5.18,1.61,9.92,9.92,0,0,1,3.72,3.38,10.36,10.36,0,0,1,1.43,5.77,9.21,9.21,0,0,1-2.08,6.17,11.42,11.42,0,0,1-5.49,3.5v.12A12.58,12.58,0,0,1,275.17,44a10.52,10.52,0,0,1,3,2.29,9.78,9.78,0,0,1,2,3.25,11.44,11.44,0,0,1,.68,4,10.55,10.55,0,0,1-1.49,5.8A11.69,11.69,0,0,1,275.51,63a16.82,16.82,0,0,1-5.3,2,28.33,28.33,0,0,1-5.86.62h-18ZM256,39.34h7a9.87,9.87,0,0,0,2.2-.25,6.09,6.09,0,0,0,2-.81,4.22,4.22,0,0,0,1.4-1.49,4.47,4.47,0,0,0,.53-2.23,4.05,4.05,0,0,0-.59-2.26A4.11,4.11,0,0,0,267,30.9a7.29,7.29,0,0,0-2.11-.71,12.66,12.66,0,0,0-2.29-.22H256Zm0,18.17h8.68a10.72,10.72,0,0,0,2.26-.25,6,6,0,0,0,2.08-.87,4.93,4.93,0,0,0,1.52-1.61,4.65,4.65,0,0,0,.59-2.42,3.89,3.89,0,0,0-.77-2.51,4.93,4.93,0,0,0-2-1.46,10.05,10.05,0,0,0-2.54-.68,19.06,19.06,0,0,0-2.54-.19H256Z"/><path d="M286.55,21.79h16.31a32.3,32.3,0,0,1,6.45.62,14.68,14.68,0,0,1,5.3,2.14,10.83,10.83,0,0,1,3.6,4.09,14,14,0,0,1,1.33,6.48,15,15,0,0,1-1.24,6.45,10.58,10.58,0,0,1-3.41,4.15,13.84,13.84,0,0,1-5.15,2.2,30.19,30.19,0,0,1-6.45.65h-7.07V65.69h-9.67Zm9.67,18.6h6.45a12.41,12.41,0,0,0,2.51-.25,6.65,6.65,0,0,0,2.17-.84,4.47,4.47,0,0,0,1.55-1.61,5.11,5.11,0,0,0,.59-2.57,4.35,4.35,0,0,0-.78-2.7,5.15,5.15,0,0,0-2-1.58,8.49,8.49,0,0,0-2.7-.71,27.52,27.52,0,0,0-2.85-.16h-5Z"/><path d="M325.61,21.79h17a30,30,0,0,1,6.35.65,15.12,15.12,0,0,1,5.27,2.17,10.85,10.85,0,0,1,3.6,4.09,13.86,13.86,0,0,1,1.33,6.42A12.88,12.88,0,0,1,356.73,43a10.88,10.88,0,0,1-7.07,4.12l11.16,18.54H349.23l-9.18-17.55h-4.77V65.69h-9.67ZM335.28,40H341q1.3,0,2.76-.09a8.66,8.66,0,0,0,2.64-.56,4.57,4.57,0,0,0,2-1.46,4.44,4.44,0,0,0,.78-2.79,4.64,4.64,0,0,0-.68-2.67,4.57,4.57,0,0,0-1.74-1.52,7.73,7.73,0,0,0-2.42-.71A19.71,19.71,0,0,0,341.6,30h-6.32Z"/><path d="M366.15,21.79H396v8.93H375.83V38.9h19v8.93h-19v8.93h21.27v8.93H366.15Z"/><path d="M405.21,21.79h29.45v8.93H414.89v8.93h18.29v8.93H414.89V65.69h-9.67Z"/><path d="M442,21.79H471.8v8.93H451.65V38.9h19v8.93h-19v8.93h21.27v8.93H442Z"/><path d="M480.67,21.79h17a30,30,0,0,1,6.35.65,15.12,15.12,0,0,1,5.27,2.17,10.85,10.85,0,0,1,3.6,4.09,13.86,13.86,0,0,1,1.33,6.42A12.88,12.88,0,0,1,511.79,43a10.88,10.88,0,0,1-7.07,4.12l11.16,18.54H504.29l-9.18-17.55h-4.77V65.69h-9.67ZM490.34,40H496q1.3,0,2.76-.09a8.66,8.66,0,0,0,2.64-.56,4.57,4.57,0,0,0,2-1.46,4.44,4.44,0,0,0,.78-2.79,4.64,4.64,0,0,0-.68-2.67,4.57,4.57,0,0,0-1.74-1.52,7.73,7.73,0,0,0-2.42-.71,19.71,19.71,0,0,0-2.67-.19h-6.32Z"/></svg>